<svg xmlns="http://www.w3.org/2000/svg" width="1024" height="1024" viewBox="0 0 1024 1024" version="1.1"><path d="M 467.500 27.511 C 355.403 38.197, 253.741 85.254, 172.630 164 C 132.520 202.940, 101.489 245.577, 75.474 297.492 C 65.176 318.042, 54.482 343.842, 48.941 361.500 C 47.215 367, 45.152 373.490, 44.355 375.922 C 37.275 397.542, 31.139 428.880, 26.817 465.500 C 25.067 480.334, 25.049 548.074, 26.793 560.500 C 27.488 565.450, 28.532 573.100, 29.114 577.500 C 40.431 663.104, 76.568 746.961, 131.609 815.348 C 198.110 897.971, 286.983 956.252, 386.500 982.500 C 413.995 989.752, 436.652 993.779, 469 997.162 C 484.026 998.734, 540.158 998.742, 555 997.174 C 587.234 993.769, 606.088 990.522, 632.500 983.826 C 717.262 962.338, 793.409 918.659, 857.029 855.031 C 900.415 811.640, 932.899 764.261, 958.521 707 C 975.889 668.185, 989.105 621.488, 994.889 578.500 C 995.481 574.100, 996.535 566.225, 997.232 561 C 998.992 547.794, 998.958 477.065, 997.185 463.500 C 989.916 407.899, 982.575 378.382, 964.981 334.022 C 940.212 271.568, 904.381 217.160, 856.590 169.434 C 846.641 159.497, 834 147.532, 828.500 142.845 C 757.812 82.601, 674.313 44.312, 584.525 30.968 C 558.342 27.077, 541.839 26, 510.500 26.139 C 494 26.212, 474.650 26.830, 467.500 27.511 M 505.324 65.379 C 487.201 71.307, 478.695 91.065, 487.060 107.804 C 492.360 118.411, 501.609 123.956, 514 123.956 C 523.045 123.956, 528.578 121.773, 534.700 115.787 L 538.900 111.681 546.700 117.002 C 559.361 125.637, 572.912 136.982, 578.302 143.458 C 584.789 151.250, 587.366 157.044, 587.441 164 C 587.616 180.341, 571.690 196.493, 537.727 214.416 L 524.955 221.157 520.662 219.078 C 518.300 217.935, 514.913 217, 513.135 217 C 505.903 217, 499.969 222.942, 499.482 230.671 C 499.199 235.178, 499.149 235.235, 491.848 239.418 C 470.220 251.810, 458.816 260.055, 446.881 271.927 C 437.842 280.917, 433.103 288.531, 430.700 297.921 C 429.567 302.348, 428.726 303.334, 421.476 308.729 C 411.136 316.425, 400.982 327.293, 397.519 334.372 C 393.902 341.765, 393.112 350.811, 395.466 357.898 C 397.009 362.543, 397.030 363.305, 395.674 365.375 C 391.610 371.578, 391.697 379.935, 395.880 385.101 C 397.670 387.311, 397.649 387.499, 394.909 393.540 C 389.551 405.358, 389.053 415.806, 393.361 426 C 394.697 429.159, 401.644 439.341, 407.088 446.115 L 409.189 448.730 404.740 454.615 C 399.953 460.948, 392.406 472.180, 384.674 484.479 C 380.845 490.569, 379.502 491.997, 378.174 491.388 C 374.691 489.791, 364.826 489.795, 360.641 491.394 C 355.314 493.430, 348.471 500.084, 346.848 504.809 C 345.077 509.960, 345.311 519.828, 347.295 523.630 C 348.193 525.352, 350.162 528.227, 351.671 530.020 L 354.414 533.280 351.061 539.390 C 346.052 548.519, 335.914 564, 334.945 564 C 333.720 564, 329.430 557.497, 319.771 541 C 306.724 518.718, 304.601 514.170, 305.909 511.301 C 306.509 509.984, 307 508.088, 307 507.088 C 307 504.237, 303.186 500.105, 299.727 499.209 C 296.947 498.489, 295.690 496.755, 288.955 484.359 C 274.086 456.989, 262.866 440.264, 249.384 425.366 C 242.252 417.485, 242.057 417.135, 243.120 414.085 C 245.590 407, 240.922 396.139, 233.770 392.330 C 231.971 391.373, 228.348 390.344, 225.717 390.044 L 220.935 389.500 217.422 381.500 C 214.285 374.356, 214.022 373.107, 214.970 369.832 C 216.369 364.996, 214.745 361.424, 210.053 359.017 C 207.322 357.616, 205.280 355.031, 201.228 347.843 C 194.187 335.356, 188.163 327.967, 181.327 323.429 C 173.587 318.291, 168.037 317.769, 160.482 321.465 C 155.929 323.692, 153.951 325.560, 149.491 331.841 C 146.500 336.053, 142.218 342.988, 139.975 347.251 C 137.222 352.485, 134.950 355.491, 132.979 356.511 C 129.121 358.506, 127.654 361.478, 128.364 365.857 C 128.824 368.692, 127.926 371.948, 124.056 381.470 C 116.978 398.883, 108.691 422.921, 96.032 462.750 L 89.914 482 83.207 482.001 C 65.456 482.003, 51.822 496.734, 53.238 514.381 C 54.816 534.031, 74.788 547.012, 92.871 540.141 C 111.123 533.206, 118.418 511.542, 107.867 495.613 L 104.837 491.038 107.106 487.769 C 116.990 473.532, 130.035 457.271, 136.496 451.134 C 149.877 438.423, 159.380 436.116, 172.211 442.462 C 184.452 448.516, 193.692 459.588, 208.979 486.519 L 217.894 502.224 215.836 505.008 C 213.091 508.721, 212.337 515.817, 214.286 519.587 C 216.695 524.244, 219.407 526.064, 225.731 527.266 C 231.600 528.382, 231.674 528.439, 234.976 534.445 C 242.433 548.010, 255.710 566.667, 264.300 575.653 C 274.721 586.552, 284.162 593.201, 292.541 595.537 C 298.075 597.081, 298.785 597.626, 302.500 603.183 C 307.912 611.278, 321.269 623.799, 328.744 627.783 C 337.485 632.442, 344.328 633.513, 352.408 631.486 C 358.610 629.931, 358.975 629.947, 362.877 631.937 C 368.366 634.737, 374.439 634.582, 379.823 631.505 L 384.145 629.033 388.323 631.169 C 405.501 639.952, 424.517 636.159, 440.738 620.714 L 443.976 617.631 447.738 620.824 C 453.980 626.121, 465.557 633.851, 484 645.036 L 501.500 655.649 502.031 661.575 C 502.899 671.259, 507.118 676.878, 515.145 679.039 C 520.334 680.436, 525.148 679.400, 530.087 675.822 L 534.165 672.868 543.332 678.065 C 548.375 680.923, 555.602 685.260, 559.392 687.702 C 565.152 691.414, 566.056 692.355, 564.892 693.428 C 563.873 694.368, 534.885 711.751, 527.779 715.683 C 527.383 715.902, 525.718 715.388, 524.079 714.541 C 520.192 712.531, 516.051 712.586, 512.973 714.690 C 509.618 716.982, 508.589 718.797, 508 723.460 C 507.503 727.398, 507.405 727.477, 490 737.988 C 461.923 754.944, 430.891 776.477, 419.500 786.906 C 410.793 794.878, 411.503 794.602, 407.788 791.466 C 402.565 787.058, 397.144 785.044, 390.500 785.044 C 377.598 785.044, 367.496 794.041, 365.571 807.246 L 364.879 811.993 351.189 818.972 C 343.660 822.811, 334.682 828.100, 331.237 830.726 C 319.388 839.758, 314.415 850.416, 317.409 860.364 C 320.702 871.306, 328.764 878.394, 349.628 888.691 C 362.006 894.800, 362.853 895.404, 363.441 898.539 C 364.793 905.745, 373.491 909.118, 381.218 905.433 C 384.414 903.909, 384.843 903.993, 396.862 908.489 C 407.372 912.420, 420.921 916.960, 442 923.612 C 444.475 924.393, 454.807 927.399, 464.960 930.291 L 483.421 935.550 484.198 939.291 C 485.941 947.678, 492.496 956.170, 500.306 960.158 C 506.284 963.211, 516.204 963.748, 523.643 961.422 C 531.472 958.974, 538.914 951.724, 541.560 943.968 C 545.428 932.626, 543.247 921.716, 535.363 912.971 C 529.684 906.672, 523.283 904.022, 513.717 904.010 C 504.234 903.998, 497.774 906.832, 491.358 913.819 L 487.180 918.370 478.840 912.964 C 448.409 893.237, 435.640 878.133, 437.330 863.865 C 438.182 856.670, 442.486 849.501, 451.058 841 C 460.284 831.850, 470.307 824.620, 487.822 814.477 L 501.143 806.763 503.822 809.318 C 512.112 817.226, 525.501 814.751, 530.875 804.316 C 531.494 803.114, 532 799.491, 532 796.265 L 532 790.398 539.750 785.995 C 561.120 773.854, 580.731 758.584, 588.439 748.083 C 591.963 743.282, 595.290 736.099, 596.416 730.859 C 596.832 728.921, 598.949 726.993, 604.354 723.623 C 614.968 717.008, 624.983 707.364, 629.073 699.820 C 632.314 693.842, 632.496 692.986, 632.430 684 C 632.376 676.657, 631.853 673.205, 630.126 668.797 C 627.999 663.370, 627.973 662.970, 629.585 660.511 C 630.918 658.476, 631.144 656.651, 630.649 651.911 C 630.111 646.765, 630.369 645.205, 632.436 641.126 C 638.076 629.996, 639.305 618.434, 635.988 607.696 C 633.982 601.202, 624.330 585.293, 620.152 581.595 C 617.865 579.570, 617.315 576.541, 619.042 575.474 C 620.354 574.663, 639.901 545.377, 646.797 533.888 L 651.967 525.276 657.234 525.330 C 666.648 525.427, 672.727 520.789, 675.173 511.642 C 676.611 506.266, 675.257 500.558, 671.526 496.264 L 669.125 493.500 673.695 485 C 678.225 476.576, 687.864 461, 688.548 461 C 689.125 461, 697.093 473.585, 704.896 486.821 L 712.160 499.142 710.580 502.472 C 708.635 506.572, 708.610 508.131, 710.421 512.466 C 711.990 516.220, 716.364 519, 720.702 519 C 723.237 519, 724.211 520.216, 730.922 531.750 C 740.315 547.894, 759.147 576.365, 766.474 585.500 C 769.563 589.350, 775.891 596.625, 780.538 601.666 C 790.897 612.906, 792.022 615.300, 788.645 618.908 C 781.830 626.191, 779.820 638.866, 784.084 647.673 C 788.010 655.784, 797.422 662, 805.777 662 C 808.671 662, 809.093 662.563, 814.266 673.321 C 817.260 679.548, 821.353 687.211, 823.361 690.350 C 836.642 711.111, 851.630 715.510, 867.617 703.338 C 872.113 699.916, 878.610 690.244, 885.553 676.639 C 891.201 665.571, 891.869 664.688, 895.553 663.430 C 901.249 661.485, 904 657.891, 904 652.395 C 904 649.923, 903.312 646.570, 902.471 644.944 C 900.998 642.096, 901.217 641.173, 908.433 619.744 C 915.688 598.201, 925.095 568.730, 930.456 550.750 L 933.064 542 939.995 542 C 949.984 542, 956.666 539.243, 962.697 532.631 C 974.228 519.993, 973.942 503.020, 961.995 490.910 C 955.056 483.877, 948.863 481.526, 939.116 482.225 C 927.966 483.026, 919.141 488.926, 914.303 498.813 C 912.010 503.499, 911.526 505.810, 911.526 512.072 C 911.526 518.724, 911.946 520.483, 914.943 526.388 L 918.360 533.120 916.497 536.310 C 902.956 559.494, 886.463 579.342, 876.190 584.818 C 868.401 588.970, 858.952 589.280, 850.751 585.654 C 838.194 580.100, 824.241 562.823, 806.993 531.472 L 803.677 525.445 806.328 521.439 C 810.189 515.605, 810.700 509.609, 807.814 504.008 C 804.549 497.670, 800.143 495, 792.947 495 L 787.190 495 782.395 486.750 C 762.491 452.502, 745.032 434.551, 728.747 431.590 C 725.733 431.043, 724.621 430.179, 723.102 427.204 C 717.012 415.278, 704.550 402.357, 694.395 397.440 C 688.204 394.442, 686.310 394, 679.668 394 C 673.952 394, 670.365 394.633, 665.325 396.530 C 658.906 398.946, 658.429 398.989, 654.685 397.491 C 651.556 396.239, 650.085 396.147, 647.392 397.036 C 644.477 397.998, 643.615 397.862, 641.053 396.038 C 636.345 392.686, 630.023 390.228, 622.949 389.001 C 610.949 386.919, 597.907 391.646, 581.573 403.996 C 574.623 409.252, 573.453 409.817, 572.073 408.584 C 568.801 405.660, 554.601 395.836, 544.961 389.828 C 537.423 385.130, 535.112 383.204, 535.619 382.043 C 536.963 378.967, 537.201 368.139, 536.004 364.513 C 533.421 356.685, 525.216 350.403, 516.182 349.337 C 509.913 348.597, 504.038 350.325, 498.532 354.528 C 496.030 356.437, 493.634 358, 493.209 358 C 492.323 358, 469.886 344.493, 465.781 341.490 C 464.286 340.395, 463.049 339.043, 463.031 338.485 C 462.961 336.216, 509.282 309.769, 513.247 309.814 C 514.486 309.828, 516.737 310.153, 518.248 310.536 C 521.891 311.459, 525.703 308.925, 526.750 304.884 C 527.449 302.186, 529.256 300.839, 540.537 294.608 C 547.678 290.664, 556.440 285.679, 560.010 283.532 C 571.977 276.331, 595.098 259.683, 601.977 253.315 L 608.788 247.009 614.853 247.642 C 618.902 248.066, 622.012 247.840, 624.209 246.964 C 632.331 243.724, 635.541 239.638, 637.522 230.020 L 638.650 224.539 646.212 221.282 C 652.713 218.481, 654.202 218.174, 656.834 219.092 C 660.902 220.510, 664.997 218.577, 667 214.292 C 668.115 211.908, 670.552 209.981, 676.486 206.792 C 694.809 196.945, 706.663 185.170, 707.723 175.764 C 708.993 164.498, 698.893 153.514, 677.250 142.623 C 673.263 140.617, 670 138.384, 670 137.662 C 670 136.940, 668.931 135.344, 667.624 134.116 C 665.752 132.358, 664.213 131.926, 660.374 132.080 C 656.702 132.228, 653.280 131.352, 646.500 128.529 C 626.879 120.361, 578.371 103.813, 558.722 98.584 C 544.571 94.819, 544.373 94.711, 543.646 90.328 C 542.713 84.703, 538.782 76.936, 534.908 73.062 C 527.777 65.931, 514.322 62.437, 505.324 65.379 M 557.406 107.848 C 557.694 108.314, 562.108 111.320, 567.215 114.527 C 583.532 124.775, 595.152 134.068, 609.015 147.958 C 627.441 166.421, 634.554 177.422, 637.139 191.453 C 638.195 197.181, 638.078 198.728, 635.973 206.893 C 634.686 211.884, 633.871 216.204, 634.161 216.494 C 634.788 217.122, 640.689 215.109, 647.158 212.061 C 650.268 210.595, 652.017 209.067, 652.420 207.462 C 653.218 204.283, 656.391 202.704, 660.864 203.260 C 664.976 203.771, 670.151 201.518, 681.500 194.273 C 693.633 186.528, 700 179.285, 700 173.228 C 700 167.173, 690.180 158.132, 675.688 150.844 C 668.436 147.197, 667.633 147.003, 664.487 148.141 C 659.948 149.782, 656.592 148.208, 654.273 143.350 C 652.317 139.252, 651.646 138.918, 625.269 128.912 C 606.378 121.746, 561.029 107, 557.883 107 C 557.332 107, 557.118 107.382, 557.406 107.848 M 578.256 132.285 C 585.805 139.724, 588.456 143.145, 591.589 149.484 C 595.027 156.440, 595.500 158.255, 595.500 164.500 C 595.500 170.682, 595.018 172.579, 591.782 179.127 C 584.744 193.367, 565.784 209.069, 538.826 222.985 C 528.505 228.312, 528.186 228.578, 527.690 232.273 C 526.674 239.849, 521.665 244.315, 514.057 244.429 C 511.445 244.468, 508.066 243.836, 506.548 243.024 C 503.951 241.636, 503.424 241.746, 497.644 244.889 C 483.054 252.822, 462.415 267.605, 453.508 276.500 C 445.183 284.814, 438.710 294.043, 440.175 295.508 C 440.513 295.847, 444.550 294.097, 449.145 291.621 C 460.920 285.274, 477.168 278.099, 493.500 272.033 C 504.511 267.943, 508.140 266.120, 510.500 263.494 C 514.037 259.558, 516.761 258.579, 520.362 259.948 C 522.560 260.783, 525.236 260.067, 536.745 255.565 C 544.310 252.606, 559.950 246.523, 571.500 242.049 C 583.050 237.575, 593.684 233.451, 595.132 232.885 C 597.425 231.988, 597.822 231.164, 598.209 226.488 C 598.818 219.154, 602.372 213.990, 609.129 210.623 C 615.112 207.641, 618.939 207.362, 624.911 209.469 C 629.060 210.932, 629.077 210.928, 630.239 208.219 C 630.881 206.723, 631.427 201.450, 631.453 196.500 C 631.496 188.228, 631.232 186.977, 628.183 181.034 C 623.200 171.318, 617.074 163.252, 606.781 152.852 C 595.124 141.075, 572.550 123, 569.498 123 C 569.133 123, 573.074 127.178, 578.256 132.285 M 590.500 243.136 C 586.650 244.774, 571.800 250.607, 557.500 256.099 C 543.200 261.590, 530.279 266.563, 528.786 267.148 C 527.293 267.734, 525.180 269.725, 524.089 271.574 C 521.770 275.504, 517.970 276.805, 513.612 275.160 C 510.936 274.149, 509.330 274.490, 500.038 278.037 C 466.296 290.918, 438 305.076, 438 309.077 C 438 312.707, 442.912 320.832, 449.111 327.459 C 452.476 331.057, 455.819 334, 456.539 334 C 457.260 334, 463.346 330.589, 470.065 326.419 C 476.783 322.250, 488.742 315.434, 496.640 311.273 C 506.618 306.017, 511 303.184, 511 301.989 C 511 301.043, 511.976 299.029, 513.169 297.512 C 515.197 294.935, 515.700 294.792, 520.905 295.330 C 526.125 295.868, 527.005 295.617, 534.986 291.305 C 544.675 286.072, 569.024 271.332, 576.500 266.176 C 582.974 261.711, 588.888 257.015, 597.236 249.711 C 603.003 244.666, 603.826 243.543, 602.951 241.909 C 601.573 239.333, 598.796 239.606, 590.500 243.136 M 422.500 317.878 C 406.899 330.386, 399.564 344.090, 402.962 354.383 C 404.096 357.820, 404.377 358, 408.617 358 C 411.109 358, 414.814 358.885, 417.007 360.003 L 420.933 362.007 431.717 353.373 C 437.648 348.624, 444.188 343.613, 446.250 342.236 C 448.313 340.860, 450 339.682, 450 339.617 C 450 339.553, 447.073 336.366, 443.497 332.535 C 439.921 328.704, 435.534 322.743, 433.748 319.289 C 431.961 315.834, 430.050 313.021, 429.500 313.038 C 428.950 313.054, 425.800 315.232, 422.500 317.878 M 164.227 328.659 C 160.010 330.738, 154.054 338.259, 148.375 348.677 C 144.285 356.179, 143.932 357.362, 144.548 361.473 C 145.358 366.874, 143.418 370.610, 139.004 372.148 C 135.877 373.239, 135.283 374.488, 125.517 400.500 C 116.982 423.232, 103.374 465.707, 104.322 466.656 C 104.578 466.911, 108.719 461.359, 113.526 454.319 C 125.162 437.276, 132.326 428.504, 144.438 416.470 C 167.369 393.687, 185.725 386.184, 205.463 391.527 C 209.074 392.505, 212.271 393.063, 212.566 392.767 C 212.862 392.471, 211.843 388.966, 210.302 384.978 C 208.068 379.198, 206.764 377.261, 203.870 375.427 C 199.835 372.870, 197.769 368.406, 198.629 364.104 C 200.050 357.002, 182.070 331.258, 173.383 327.955 C 169.917 326.638, 168.033 326.783, 164.227 328.659 M 444.342 350.849 C 439.326 354.616, 432.986 359.624, 430.253 361.978 L 425.285 366.257 425.765 372.965 C 426.048 376.917, 425.790 380.524, 425.137 381.744 C 424.256 383.390, 424.385 384.213, 425.765 385.759 C 429.199 389.607, 439.786 397.888, 455.500 409.016 C 475.872 423.442, 484.356 430.355, 491.770 438.570 C 498.755 446.308, 506.450 458.839, 509.245 467.025 L 511.232 472.844 516.366 473.546 C 519.190 473.933, 522.464 474.613, 523.643 475.059 C 525.570 475.787, 526.565 474.594, 533.546 463.184 C 544.146 445.860, 553.052 433.143, 561.198 423.701 C 567.025 416.946, 567.857 415.528, 566.774 414.196 C 566.073 413.335, 557.753 407.547, 548.285 401.335 L 531.069 390.040 526.184 393.077 C 509.567 403.406, 490 392.139, 490 372.241 L 490 365.416 483.250 361.530 C 479.538 359.393, 471.896 354.574, 466.268 350.822 C 460.640 347.070, 455.457 344, 454.750 344 C 454.042 344, 449.359 347.082, 444.342 350.849 M 415 391.044 C 414.175 391.601, 411.041 391.932, 408.035 391.779 L 402.569 391.500 399.704 397.099 C 392.706 410.771, 396.444 426.200, 410.276 440.728 L 413.349 443.955 417.642 440.437 C 420.004 438.502, 424.460 435.763, 427.545 434.351 C 440.540 428.401, 456.064 433.976, 471.575 450.161 C 478.483 457.369, 484.165 464.301, 488.946 471.351 C 492.455 476.526, 493.321 476.738, 500.219 474.109 L 502.937 473.073 501.429 468.787 C 498.818 461.366, 492.030 451.037, 484.673 443.293 C 476.119 434.288, 467.780 427.494, 447.870 413.309 C 439.593 407.412, 429.502 399.755, 425.445 396.293 C 417.612 389.610, 417.331 389.469, 415 391.044 M 607.488 395.870 C 600.172 398.565, 594.296 401.711, 587.372 406.640 C 578.004 413.307, 578.073 413.050, 584.018 419.184 C 599.411 435.068, 599.225 449.477, 583.383 468.452 C 577.882 475.040, 567.105 483.886, 549.290 496.439 C 549.174 496.521, 549.350 497.624, 549.682 498.890 C 550.197 500.860, 550.734 501.104, 553.392 500.578 C 555.101 500.240, 560.100 497.889, 564.500 495.354 C 582.396 485.044, 593.076 474.049, 610.016 448.500 C 618.203 436.152, 623.606 429.319, 632.231 420.410 C 637.608 414.854, 638.151 413.888, 638.412 409.410 C 638.570 406.709, 638.879 403.825, 639.099 403 C 639.372 401.979, 637.349 400.420, 632.764 398.117 C 624.263 393.849, 615.171 393.040, 607.488 395.870 M 185.500 395.871 C 167.858 400.535, 144.370 420.849, 124.270 448.828 C 120.844 453.598, 118.031 457.879, 118.020 458.342 C 118.009 458.805, 122.388 454.712, 127.750 449.246 C 135.706 441.136, 138.946 438.598, 145.362 435.447 C 152.261 432.058, 154.068 431.593, 160.128 431.649 C 170.291 431.742, 179.718 436.631, 190.502 447.402 C 199.405 456.295, 205.575 465.210, 217.120 485.867 C 224.598 499.248, 224.811 499.510, 228.620 500.055 C 233.871 500.806, 236.688 502.497, 238.490 505.980 C 240.406 509.685, 240.435 517.258, 238.547 520.908 C 237.150 523.610, 237.307 524.075, 242.669 533.109 C 252.217 549.194, 262.202 563.187, 269.898 571.266 C 277.059 578.784, 287.844 587, 290.550 587 C 291.382 587, 289.146 581.350, 284.514 571.750 C 275.590 553.257, 268.845 537.488, 265.401 527.067 C 263.159 520.282, 262.398 519.083, 259.442 517.674 C 255.596 515.840, 254.446 512.866, 255.364 507.127 C 255.971 503.331, 250.827 488.118, 236.722 452 C 234.252 445.675, 231.331 438.025, 230.230 435 C 228.236 429.522, 228.208 429.498, 223.325 428.885 C 216.998 428.091, 212.911 425.929, 209.178 421.400 C 204.177 415.333, 203.525 410.152, 206.527 400.336 C 207.020 398.723, 206.631 397.873, 205.003 397.002 C 202.281 395.545, 189.530 394.805, 185.500 395.871 M 668.500 404.309 C 662.573 406.474, 662.496 406.551, 662.195 410.692 C 661.919 414.501, 662.426 415.554, 667.738 422.192 C 670.954 426.212, 676.010 432.875, 678.973 437 C 681.937 441.125, 685.207 445.457, 686.239 446.626 L 688.117 448.753 693.308 443.580 C 698.386 438.521, 708.381 432.015, 711.122 431.985 C 711.880 431.976, 713.140 431.564, 713.922 431.069 C 715.956 429.782, 708.488 418.593, 700.915 411.582 C 690.861 402.274, 680.465 399.941, 668.500 404.309 M 654.070 420.098 C 652.734 420.632, 649.786 420.791, 647.520 420.451 C 643.461 419.842, 643.305 419.934, 636.950 426.671 C 630.988 432.991, 626.394 439.136, 609.047 463.987 C 595.910 482.808, 581.286 495.824, 562.923 505.038 L 553.307 509.864 552.653 518.182 C 552.293 522.757, 551.886 527.347, 551.749 528.383 C 551.559 529.820, 554.491 532.091, 564.139 537.980 C 580.068 547.705, 593.939 557.361, 603.797 565.590 C 608.021 569.116, 611.723 572, 612.024 572 C 613.748 572, 645.009 524.189, 644.993 521.576 C 644.990 520.984, 644.102 519.157, 643.019 517.515 C 638.750 511.038, 639.568 501.384, 644.871 495.664 C 648.597 491.645, 650.758 490.634, 656.917 490.031 L 662.334 489.500 669.940 476.500 C 674.124 469.350, 678.983 461.417, 680.738 458.871 L 683.930 454.242 677.792 445.371 C 671.013 435.573, 657.920 418.964, 657.053 419.063 C 656.749 419.098, 655.407 419.564, 654.070 420.098 M 566.996 425.750 C 557.182 436.677, 543.462 456.637, 533.920 473.871 L 531.500 478.241 535 480.868 C 536.925 482.313, 539.882 484.959, 541.571 486.748 L 544.643 490.001 552.517 484.520 C 565.235 475.667, 576.785 465.077, 581.439 458 C 588.365 447.468, 589.487 441.845, 586.126 434.500 C 583.989 429.832, 575.420 420, 573.487 420 C 572.757 420, 569.836 422.587, 566.996 425.750 M 237.250 423.662 C 235.270 424.461, 235.726 426.826, 239.922 437.500 C 243.627 446.925, 248.132 458.842, 258.999 487.960 C 262.879 498.355, 264.134 500.688, 266.575 502.038 C 271.138 504.563, 272.665 508.056, 271.353 512.971 C 270.337 516.780, 270.626 518.015, 275.609 531.104 C 278.549 538.829, 282.185 547.928, 283.689 551.325 C 289.509 564.470, 300.816 586.602, 302.372 587.893 C 303.392 588.740, 305.140 589.022, 307.028 588.644 C 311.355 587.779, 320.915 581, 326.377 574.926 C 330.751 570.060, 330.961 569.581, 329.578 567.610 C 325.007 561.093, 313.518 542.073, 307 530.229 C 300.315 518.083, 299.147 516.512, 296.255 515.774 C 291.471 514.553, 289.598 511.085, 290.411 504.956 C 291.030 500.294, 290.749 499.344, 286.349 491.224 C 277.800 475.446, 263.903 452.770, 257.754 444.563 C 250.886 435.398, 240.115 422.961, 239.147 423.079 C 238.791 423.122, 237.938 423.385, 237.250 423.662 M 710.222 440.513 C 704.654 443.043, 693 453.325, 693 455.707 C 693 456.479, 694.896 459.898, 697.213 463.305 C 699.529 466.712, 704.826 475.344, 708.984 482.486 C 716.146 494.793, 716.733 495.504, 720.185 496.065 C 725.286 496.894, 728.913 499.548, 730.661 503.731 C 732.002 506.940, 731.988 507.744, 730.521 511.583 C 728.678 516.409, 728.800 516.766, 737.280 531.500 C 752.043 557.149, 781 597.395, 781 592.264 C 781 591.226, 777.100 580.436, 767.352 554.500 C 764.871 547.900, 761.003 537.395, 758.756 531.155 C 755.118 521.053, 754.316 519.641, 751.432 518.266 C 746.650 515.986, 744.495 509.680, 746.938 505.116 C 748.162 502.828, 734.787 469.093, 722.805 444.250 C 719.328 437.041, 718.443 436.778, 710.222 440.513 M 430.435 440.890 C 428.199 441.906, 424.696 444.206, 422.651 446.002 C 419.039 449.173, 418.983 449.325, 420.716 451.259 C 426.089 457.259, 453.190 475.967, 470.061 485.323 L 476.622 488.961 480.811 484.693 C 483.115 482.345, 485 479.947, 485 479.365 C 485 477.294, 471.480 460.386, 464.089 453.214 C 455.293 444.679, 445.077 438.987, 438.616 439.022 C 436.352 439.034, 432.671 439.875, 430.435 440.890 M 731 441.144 C 731 441.774, 732.950 446.611, 735.333 451.894 C 737.716 457.178, 743.217 470.150, 747.558 480.722 C 754.437 497.478, 755.811 500.093, 758.265 501.110 C 763.500 503.278, 765.428 508.773, 762.899 514.323 C 761.953 516.397, 763.025 519.975, 770.473 539.620 C 775.244 552.204, 780.864 567.225, 782.961 573 C 791.216 595.732, 796.291 608.571, 797.617 610.082 C 798.675 611.287, 800.321 611.555, 804.529 611.206 C 814.491 610.380, 825.160 616.633, 829.160 625.644 L 831 629.787 835.250 628.839 C 844.826 626.703, 859.547 616.210, 874.905 600.571 C 880.627 594.744, 885.086 589.752, 884.812 589.479 C 884.539 589.206, 881.469 590.449, 877.991 592.241 C 872.296 595.175, 870.811 595.500, 863.083 595.500 C 855.559 595.500, 853.698 595.119, 848 592.409 C 833.075 585.311, 818.727 568.049, 800.074 534.750 C 797.071 529.388, 796.605 528.999, 793.177 528.978 C 788.035 528.947, 781.728 525.831, 778.970 521.958 C 775.620 517.253, 775.153 509.580, 777.891 504.214 C 779.051 501.940, 780 499.489, 780 498.768 C 780 496.727, 764.544 471.348, 758.477 463.428 C 751.982 454.947, 744.001 447.225, 737.415 443.048 C 732.200 439.741, 731 439.385, 731 441.144 M 410.729 458.746 C 405.938 465.352, 391.126 487.687, 388.435 492.362 L 386.213 496.224 388.592 499.731 C 397.457 512.794, 392.421 529.701, 377.790 535.995 C 373.577 537.807, 371.573 538.097, 366.905 537.569 L 361.183 536.921 354.567 548.037 C 350.928 554.150, 346.162 561.574, 343.975 564.533 C 341.789 567.493, 340 570.551, 340 571.329 C 340 572.920, 350.698 587.569, 358.101 596.116 L 362.965 601.731 366.984 600.659 C 369.973 599.861, 372.198 599.906, 375.663 600.832 C 380.269 602.064, 380.364 602.040, 383.795 598.789 C 387.131 595.628, 396.224 583.730, 411.857 562.071 C 420.694 549.827, 433.828 535.807, 442.882 528.950 C 446.522 526.193, 453.325 522.045, 458 519.731 C 462.675 517.417, 466.831 515.068, 467.235 514.512 C 467.639 513.955, 467.987 511.925, 468.008 510 C 468.030 508.075, 469.160 503.800, 470.519 500.500 C 471.879 497.200, 472.993 494.229, 472.995 493.898 C 472.998 493.568, 467.712 490.202, 461.250 486.419 C 444.892 476.845, 430.442 467.198, 422.899 460.817 C 419.380 457.839, 415.977 455.085, 415.338 454.697 C 414.632 454.268, 412.825 455.855, 410.729 458.746 M 460 527.638 C 441.600 537.872, 428.929 550.754, 409.478 579 C 406.259 583.675, 399.675 592.313, 394.846 598.197 C 386.363 608.532, 386.104 608.999, 387.156 612.016 C 387.754 613.734, 388.014 617.181, 387.733 619.676 L 387.222 624.212 392.861 626.856 C 397.718 629.133, 399.817 629.500, 408 629.500 C 416.328 629.500, 418.179 629.164, 423 626.777 C 426.025 625.279, 431.175 621.647, 434.445 618.705 L 440.390 613.356 438.325 610.428 C 432.606 602.315, 431.561 598.945, 431.530 588.500 C 431.503 579.598, 431.799 577.896, 434.220 573 C 438.999 563.339, 449.711 551.569, 468.120 535.752 C 470.701 533.535, 470.719 533.427, 469.312 528.750 C 468.527 526.138, 467.572 524.005, 467.192 524.011 C 466.811 524.018, 463.575 525.650, 460 527.638 M 546.521 539.233 C 545.471 541.011, 542.892 544.332, 540.790 546.612 L 536.968 550.759 541.669 557.129 C 555.351 575.670, 573.727 588.536, 586.425 588.467 C 591.338 588.440, 593.360 587.891, 597 585.596 C 601.951 582.475, 607 578.060, 607 576.853 C 607 573.594, 568.611 545.964, 553.055 538.028 C 550.869 536.913, 548.934 536, 548.755 536 C 548.577 536, 547.572 537.455, 546.521 539.233 M 465.444 548.350 C 449.333 561.570, 439.693 575.197, 438.373 586.615 C 437.749 592.017, 440.511 601.039, 444.066 605.209 L 446.019 607.500 449.096 604 C 459.997 591.603, 482.132 559.069, 483.652 553.210 C 483.927 552.149, 482.253 549.510, 479.242 546.255 L 474.389 541.010 465.444 548.350 M 914.204 559.266 C 901.590 579.772, 885.446 599.411, 869.344 613.842 C 855.727 626.046, 846.681 631.678, 836.944 634.013 C 832.748 635.020, 832 635.557, 832 637.562 C 832 643.130, 827.938 650.895, 822.481 655.759 L 817.089 660.565 821.466 669.708 C 829.136 685.729, 837.464 697.038, 844.200 700.580 C 851.286 704.306, 860.563 700.478, 867.827 690.832 C 870.035 687.899, 874.637 680.171, 878.053 673.658 L 884.264 661.815 882.132 658.021 C 880.959 655.935, 880 652.893, 880 651.262 C 880 647.232, 883.911 641.719, 887.531 640.646 C 889.164 640.162, 891.175 639.435, 892 639.031 C 894.079 638.012, 904.946 606.472, 916.127 569 C 918.835 559.925, 921.295 551.712, 921.593 550.750 C 922.917 546.475, 920.016 549.818, 914.204 559.266 M 488.613 557.250 C 487.826 558.487, 484.620 563.775, 481.491 569 C 474.363 580.902, 465.674 593.088, 456.708 603.758 C 450.652 610.967, 449.941 612.224, 451.117 613.641 C 454.807 618.087, 474.366 630.998, 498.234 644.742 L 505.968 649.195 511.180 646.597 C 514.047 645.169, 517.767 644.010, 519.446 644.022 C 523.231 644.049, 529.885 647.026, 532.345 649.793 C 534.710 652.453, 536.900 658.593, 536.956 662.724 C 536.992 665.336, 537.618 666.263, 540.250 667.602 C 545.333 670.187, 562.993 681.028, 568.250 684.789 L 573.001 688.188 583.250 680.910 C 600.442 668.702, 608.229 662.001, 607.392 660.135 C 606.989 659.236, 606.616 655.623, 606.563 652.108 L 606.466 645.715 600.983 640.780 C 597.967 638.065, 590.325 632.195, 584 627.734 C 558.726 609.911, 552.153 604.836, 543.974 596.830 C 534.168 587.233, 527.264 577.978, 521.807 567.116 L 517.981 559.500 510.241 559.381 C 505.138 559.302, 500.467 558.535, 496.535 557.131 C 493.254 555.959, 490.452 555, 490.308 555 C 490.164 555, 489.401 556.013, 488.613 557.250 M 527.127 555.900 C 526.018 556.603, 526.374 557.989, 528.987 563.131 C 538.839 582.517, 553.425 597.348, 580 615 C 590.970 622.286, 604.959 633.224, 609.946 638.414 C 613.173 641.772, 613.786 642, 619.586 642 L 625.780 642 627.776 637.750 C 634.069 624.349, 633.324 611.562, 625.492 598.556 C 621.431 591.813, 614.243 583, 612.804 583 C 612.248 583, 609.568 585.001, 606.849 587.446 C 600.905 592.790, 592.893 596, 585.500 596 C 571.134 596, 551.738 582.709, 536.247 562.250 C 530.760 555.004, 529.704 554.268, 527.127 555.900 M 327.996 583.504 C 323.923 587.613, 319.126 591.220, 315.018 593.261 C 311.433 595.043, 308.326 596.599, 308.113 596.720 C 307.900 596.841, 310.293 600.117, 313.431 604 C 323.845 616.890, 335.227 624, 345.447 624 C 353.432 624, 354 623.587, 354 617.779 C 354 614.558, 354.743 611.450, 356.084 609.065 L 358.168 605.357 347.025 591.429 C 340.896 583.768, 335.561 577.384, 335.169 577.243 C 334.777 577.101, 331.549 579.919, 327.996 583.504 M 609.966 667.541 C 608.907 668.818, 595.396 679.147, 582.250 688.732 C 580.462 690.035, 579.010 691.641, 579.022 692.301 C 579.034 692.960, 581.309 695.750, 584.078 698.500 C 587.005 701.407, 590.617 706.534, 592.708 710.750 C 594.686 714.737, 596.725 718, 597.239 718 C 599.007 718, 612.986 707.758, 616.447 703.927 C 624.246 695.294, 626.738 684.934, 623.496 674.625 C 621.430 668.058, 620.838 667.477, 615.367 666.643 C 612.297 666.176, 610.908 666.406, 609.966 667.541 M 563.604 701.011 C 559.262 703.820, 549.924 709.512, 542.854 713.661 C 530.343 721.003, 530 721.296, 530 724.637 C 530 733.227, 520.430 738.730, 513.063 734.378 C 510.370 732.787, 510.135 732.861, 500.908 738.188 C 474.053 753.695, 428.599 784.932, 430.347 786.680 C 430.527 786.860, 434.234 785.694, 438.587 784.090 C 455.724 777.773, 469.106 772.724, 482.500 767.523 C 490.200 764.532, 499.079 761.137, 502.232 759.978 C 506.211 758.514, 508.486 756.985, 509.672 754.977 C 511.964 751.098, 516.020 749.463, 519.950 750.833 C 522.634 751.768, 525.060 751.030, 542.231 744.054 C 559.490 737.042, 579.158 728.342, 586 724.693 C 590.848 722.108, 587.504 713.191, 577.720 702.623 L 571.500 695.903 563.604 701.011 M 570.500 740.723 C 562.800 744.304, 549.975 749.840, 542 753.025 C 529.806 757.896, 527.280 759.269, 526.117 761.658 C 525.357 763.221, 524.049 765.288, 523.212 766.250 C 521.478 768.243, 516.319 768.558, 512.667 766.894 C 510.191 765.766, 502.852 768.163, 473.500 779.684 C 468.550 781.627, 459.775 784.919, 454 786.999 C 448.225 789.080, 437.038 793.372, 429.141 796.538 L 414.781 802.294 415.398 806.942 C 416.738 817.047, 409.876 828.917, 400.204 833.222 C 395.299 835.406, 395.298 835.537, 400.138 845.382 C 405.734 856.766, 418.208 871.921, 431.151 883.061 C 438.626 889.494, 441.340 890.690, 438.082 886.115 C 435.087 881.909, 432.393 875.162, 431.609 869.902 C 428.726 850.570, 447.545 829.357, 487.797 806.566 C 497.795 800.905, 498 800.716, 498.022 797.145 C 498.051 792.371, 501.054 785.889, 504.490 783.186 C 510.204 778.692, 517.019 778.339, 524.506 782.152 L 528.511 784.191 537.506 779.010 C 561.799 765.015, 579.318 750.445, 585.313 739.250 C 589.002 732.362, 588.337 732.428, 570.500 740.723 M 353.217 827.012 C 339.717 833.864, 330.546 840.765, 327.280 846.533 C 324.683 851.118, 324.306 857.774, 326.415 861.800 C 329.581 867.844, 339.730 875.140, 355.883 882.985 C 365.072 887.447, 365.133 887.460, 368.140 885.735 C 375.356 881.593, 385.908 885.727, 385.978 892.724 C 386.011 896.017, 387.739 896.808, 416 906.469 C 436.239 913.387, 472.538 924.490, 481.250 926.427 C 486.058 927.496, 484.252 925.155, 477.750 921.893 C 457.443 911.702, 438.304 898.140, 422.161 882.500 C 404.484 865.375, 395.078 852.359, 391.380 839.909 C 390.047 835.420, 389.751 835.135, 385.737 834.490 C 379.785 833.532, 373.412 829.580, 370.345 824.945 C 368.909 822.775, 367.133 821, 366.399 821 C 365.664 821, 359.732 823.705, 353.217 827.012" stroke="none" fill="#e06d24" fill-rule="evenodd"/><path d="M 1 512 L 1 1023 512 1023 L 1023 1023 1023 512 L 1023 1 512 1 L 1 1 1 512 M 467.500 27.511 C 355.403 38.197, 253.741 85.254, 172.630 164 C 132.520 202.940, 101.489 245.577, 75.474 297.492 C 65.176 318.042, 54.482 343.842, 48.941 361.500 C 47.215 367, 45.152 373.490, 44.355 375.922 C 37.275 397.542, 31.139 428.880, 26.817 465.500 C 25.067 480.334, 25.049 548.074, 26.793 560.500 C 27.488 565.450, 28.532 573.100, 29.114 577.500 C 40.431 663.104, 76.568 746.961, 131.609 815.348 C 198.110 897.971, 286.983 956.252, 386.500 982.500 C 413.995 989.752, 436.652 993.779, 469 997.162 C 484.026 998.734, 540.158 998.742, 555 997.174 C 587.234 993.769, 606.088 990.522, 632.500 983.826 C 717.262 962.338, 793.409 918.659, 857.029 855.031 C 900.415 811.640, 932.899 764.261, 958.521 707 C 975.889 668.185, 989.105 621.488, 994.889 578.500 C 995.481 574.100, 996.535 566.225, 997.232 561 C 998.992 547.794, 998.958 477.065, 997.185 463.500 C 989.916 407.899, 982.575 378.382, 964.981 334.022 C 940.212 271.568, 904.381 217.160, 856.590 169.434 C 846.641 159.497, 834 147.532, 828.500 142.845 C 757.812 82.601, 674.313 44.312, 584.525 30.968 C 558.342 27.077, 541.839 26, 510.500 26.139 C 494 26.212, 474.650 26.830, 467.500 27.511 M 505.324 65.379 C 487.201 71.307, 478.695 91.065, 487.060 107.804 C 492.355 118.401, 501.600 123.948, 514 123.968 C 522.662 123.982, 529.534 121.345, 534.437 116.126 C 536.052 114.407, 538.168 113, 539.139 113 C 541.420 113, 556.593 123.588, 567.256 132.620 C 581.463 144.655, 589.156 157.488, 587.667 166.668 C 586.923 171.250, 582.629 180.451, 579.419 184.338 C 571.581 193.829, 557.536 203.962, 537.727 214.416 L 524.955 221.157 520.662 219.078 C 510.152 213.991, 500.705 219.252, 499.318 230.965 C 498.990 233.734, 498.437 236, 498.089 236 C 497.741 236, 491.616 239.500, 484.478 243.778 C 452.125 263.168, 435.244 280.163, 430.700 297.921 C 429.567 302.348, 428.726 303.334, 421.476 308.729 C 411.136 316.425, 400.982 327.293, 397.519 334.372 C 393.934 341.699, 393.114 350.817, 395.417 357.750 C 397.042 362.642, 397.028 362.885, 394.876 367.013 C 391.986 372.559, 392.025 378.493, 394.987 383.764 L 397.308 387.893 394.709 393.885 C 389.738 405.348, 389.129 415.042, 392.786 424.500 C 394.503 428.940, 403.005 441.790, 406.047 444.543 C 407.121 445.515, 408 447.125, 408 448.121 C 408 449.117, 404.725 454.560, 400.722 460.216 C 396.719 465.872, 390.586 475.094, 387.093 480.709 L 380.743 490.918 372.898 490.313 C 363.267 489.570, 358.353 491.177, 352.308 497.047 C 347.298 501.912, 345.564 506.436, 345.620 514.500 C 345.664 520.897, 347.107 524.597, 351.671 530.020 L 354.414 533.280 351.058 539.390 C 344.533 551.272, 336.503 562.990, 334.883 562.995 C 332.977 563.001, 330.855 559.907, 319.660 540.801 C 306.739 518.748, 304.603 514.167, 305.909 511.301 C 306.509 509.984, 307 508.088, 307 507.088 C 307 504.237, 303.186 500.105, 299.727 499.209 C 296.947 498.489, 295.690 496.755, 288.955 484.359 C 274.440 457.641, 263.110 440.652, 250.109 426.106 L 243.500 418.711 243.500 410.943 C 243.500 403.919, 243.211 402.763, 240.486 398.885 C 236.743 393.559, 231.933 390.667, 225.717 390.008 L 220.935 389.500 217.422 381.500 C 214.285 374.356, 214.022 373.107, 214.970 369.832 C 216.369 364.996, 214.745 361.424, 210.053 359.017 C 207.322 357.616, 205.280 355.031, 201.228 347.843 C 194.187 335.356, 188.163 327.967, 181.327 323.429 C 173.587 318.291, 168.037 317.769, 160.482 321.465 C 155.929 323.692, 153.951 325.560, 149.491 331.841 C 146.500 336.053, 142.218 342.988, 139.975 347.251 C 137.222 352.485, 134.950 355.491, 132.979 356.511 C 129.121 358.506, 127.654 361.478, 128.364 365.857 C 128.824 368.692, 127.926 371.948, 124.056 381.470 C 116.978 398.883, 108.691 422.921, 96.032 462.750 L 89.914 482 83.207 482.001 C 65.456 482.003, 51.822 496.734, 53.238 514.381 C 54.146 525.688, 60.530 534.544, 71.435 539.622 C 85.208 546.035, 102.908 539.091, 110.022 524.484 C 114.382 515.532, 113.017 502.261, 106.878 493.905 C 104.903 491.217, 106.566 488.050, 117.853 473 C 130.459 456.191, 141.800 444.896, 149.707 441.277 C 163.463 434.979, 180.022 442.936, 194.202 462.660 C 200.061 470.809, 216.988 499.682, 216.996 501.539 C 216.998 502.110, 216.100 504.342, 215 506.500 C 211.684 513.003, 212.745 519.744, 217.805 524.323 C 218.910 525.323, 222.477 526.648, 225.731 527.266 C 231.600 528.382, 231.674 528.439, 234.976 534.445 C 242.433 548.010, 255.710 566.667, 264.300 575.653 C 274.721 586.552, 284.162 593.201, 292.541 595.537 C 298.075 597.081, 298.785 597.626, 302.500 603.183 C 307.912 611.278, 321.269 623.799, 328.744 627.783 C 337.485 632.442, 344.328 633.513, 352.408 631.486 C 358.610 629.931, 358.975 629.947, 362.877 631.937 C 368.106 634.605, 373.806 634.554, 379.496 631.789 C 383.559 629.816, 384.392 629.720, 387.273 630.896 C 396.010 634.461, 399.013 635.276, 405.151 635.746 C 414.267 636.443, 423.447 633.573, 432.554 627.177 C 436.384 624.488, 440.130 621.548, 440.881 620.644 C 442.990 618.102, 445.491 618.666, 450.227 622.750 C 455.581 627.367, 465.786 634.076, 486 646.271 L 501.500 655.623 502.031 661.561 C 502.901 671.287, 507.112 676.876, 515.214 679.058 C 520.079 680.368, 524.349 679.560, 529.229 676.409 C 531.279 675.084, 533.776 674, 534.776 674 C 537.394 674, 564.444 690.375, 564.792 692.171 C 564.989 693.186, 559.170 697.180, 546.925 704.434 C 528.086 715.596, 528.667 715.395, 520.768 713.448 C 514.391 711.875, 508.303 716.498, 507.803 723.293 L 507.500 727.420 490 737.989 C 460.632 755.724, 431.446 776.110, 418.169 788.161 C 415.238 790.823, 412.170 793, 411.353 793 C 410.535 793, 408.410 791.889, 406.629 790.531 C 401.591 786.688, 396.576 784.998, 390.282 785.022 C 377.585 785.070, 367.479 794.159, 365.571 807.246 L 364.879 811.993 351.189 818.972 C 343.660 822.811, 334.682 828.100, 331.237 830.726 C 319.388 839.758, 314.415 850.416, 317.409 860.364 C 320.702 871.306, 328.764 878.394, 349.628 888.691 C 362.006 894.800, 362.853 895.404, 363.441 898.539 C 364.793 905.745, 373.491 909.118, 381.218 905.433 C 384.414 903.909, 384.843 903.993, 396.862 908.489 C 407.372 912.420, 420.921 916.960, 442 923.612 C 444.475 924.393, 454.807 927.399, 464.960 930.291 L 483.421 935.550 484.198 939.291 C 485.941 947.678, 492.496 956.170, 500.306 960.158 C 506.284 963.211, 516.204 963.748, 523.643 961.422 C 539.166 956.568, 547.942 936.842, 541.259 921.824 C 536.110 910.254, 526.233 903.889, 513.430 903.889 C 506.984 903.889, 505.190 904.315, 500.015 907.073 C 496.730 908.824, 492.885 911.774, 491.470 913.628 C 490.056 915.483, 488.017 917, 486.939 917 C 485.861 917, 480.886 914.289, 475.882 910.976 C 441.019 887.889, 431.076 871.705, 440.705 853.714 C 444.183 847.215, 456.102 835.292, 466.560 827.850 C 477.027 820.402, 498.454 808, 500.856 808 C 501.901 808, 503.373 808.745, 504.128 809.655 C 507.520 813.745, 516.048 815.134, 522.128 812.587 C 528.844 809.774, 532.312 804.051, 532.198 795.972 L 532.118 790.331 539.809 785.961 C 561.119 773.854, 580.739 758.572, 588.439 748.083 C 591.963 743.282, 595.290 736.099, 596.416 730.859 C 596.832 728.921, 598.949 726.993, 604.354 723.623 C 614.968 717.008, 624.983 707.364, 629.073 699.820 C 632.314 693.842, 632.496 692.986, 632.430 684 C 632.376 676.657, 631.853 673.205, 630.126 668.797 C 627.999 663.370, 627.973 662.970, 629.585 660.511 C 630.918 658.476, 631.144 656.651, 630.649 651.911 C 630.111 646.765, 630.369 645.205, 632.436 641.126 C 638.076 629.996, 639.305 618.434, 635.988 607.696 C 633.982 601.202, 624.330 585.293, 620.152 581.595 C 617.865 579.570, 617.315 576.541, 619.042 575.474 C 620.367 574.655, 639.926 545.334, 646.941 533.650 C 652.030 525.175, 652.380 524.826, 655.214 525.393 C 660.005 526.351, 666.815 524.091, 670.467 520.331 C 676.602 514.014, 677.411 504.832, 672.474 497.556 C 671.113 495.551, 670 493.344, 670 492.651 C 670 491.389, 680.401 472.789, 685.035 465.762 C 686.391 463.707, 687.993 462.019, 688.596 462.012 C 689.678 462, 696.922 473.150, 706.989 490.321 C 712.143 499.111, 712.155 499.153, 710.580 502.472 C 708.635 506.572, 708.610 508.131, 710.421 512.466 C 711.990 516.220, 716.364 519, 720.702 519 C 723.237 519, 724.211 520.216, 730.922 531.750 C 740.348 547.951, 759.170 576.399, 766.485 585.500 C 769.580 589.350, 776.136 596.898, 781.056 602.274 C 790.396 612.480, 791.987 616.106, 788.422 619.065 C 782.258 624.181, 779.981 639.197, 784.084 647.673 C 788.010 655.784, 797.422 662, 805.777 662 C 808.671 662, 809.093 662.563, 814.266 673.321 C 823.893 693.343, 831.664 703.509, 840.500 707.642 C 849.574 711.886, 858.237 710.480, 867.781 703.213 C 872.109 699.918, 880.684 686.908, 886.609 674.647 C 889.228 669.228, 892.075 664.583, 892.936 664.324 C 897.471 662.961, 901.076 660.814, 902.513 658.621 C 904.617 655.409, 904.652 649.161, 902.587 645.168 C 900.962 642.025, 901.031 641.724, 908.433 619.744 C 915.688 598.201, 925.095 568.730, 930.456 550.750 L 933.064 542 939.995 542 C 949.984 542, 956.666 539.243, 962.697 532.631 C 974.228 519.993, 973.942 503.020, 961.995 490.910 C 955.056 483.877, 948.863 481.526, 939.116 482.225 C 927.966 483.026, 919.141 488.926, 914.303 498.813 C 912.010 503.499, 911.526 505.810, 911.526 512.072 C 911.526 518.724, 911.946 520.483, 914.943 526.388 L 918.360 533.120 916.497 536.310 C 902.956 559.494, 886.463 579.342, 876.190 584.818 C 868.401 588.970, 858.952 589.280, 850.751 585.654 C 838.194 580.100, 824.241 562.823, 806.993 531.472 L 803.677 525.445 806.295 521.472 C 809.833 516.103, 810.633 510.451, 808.558 505.485 C 805.404 497.936, 800.521 494.714, 792.345 494.788 L 787.093 494.835 782.347 486.667 C 762.498 452.512, 745.016 434.548, 728.747 431.590 C 725.733 431.043, 724.621 430.179, 723.102 427.204 C 717.012 415.278, 704.550 402.357, 694.395 397.440 C 688.204 394.442, 686.310 394, 679.668 394 C 673.952 394, 670.365 394.633, 665.325 396.530 C 658.906 398.946, 658.429 398.989, 654.685 397.491 C 651.556 396.239, 650.085 396.147, 647.392 397.036 C 644.477 397.998, 643.615 397.862, 641.053 396.038 C 636.345 392.686, 630.023 390.228, 622.949 389.001 C 611.111 386.947, 597.733 391.713, 582.274 403.493 C 578.300 406.522, 574.574 409, 573.996 409 C 573.417 409, 568.977 406.141, 564.128 402.646 C 559.279 399.151, 550.956 393.639, 545.631 390.396 L 535.950 384.500 536.635 379.500 C 538.505 365.859, 534.670 356.990, 524.682 351.853 C 516.216 347.500, 506.427 348.501, 498.532 354.528 C 496.030 356.437, 493.634 358, 493.209 358 C 492.323 358, 469.886 344.493, 465.781 341.490 C 464.286 340.395, 463.049 339.043, 463.031 338.485 C 462.990 337.159, 475.613 329.323, 495.282 318.464 C 510.776 309.909, 511.156 309.763, 516.134 310.423 C 522.259 311.236, 525.549 309.519, 526.750 304.884 C 527.449 302.186, 529.256 300.839, 540.537 294.608 C 547.678 290.664, 556.440 285.679, 560.010 283.532 C 571.977 276.331, 595.098 259.683, 601.977 253.315 L 608.788 247.009 614.853 247.642 C 627.271 248.940, 635.941 242.006, 637.670 229.394 C 638.292 224.850, 638.399 224.738, 644.751 221.887 C 649.930 219.564, 652.379 219.044, 657.186 219.247 C 662.655 219.478, 663.379 219.258, 665.586 216.694 C 666.914 215.151, 668 213.307, 668 212.597 C 668 211.887, 671.706 209.325, 676.236 206.903 C 694.748 197.006, 706.656 185.230, 707.723 175.764 C 708.993 164.498, 698.893 153.514, 677.250 142.623 C 673.263 140.617, 670 138.384, 670 137.662 C 670 134.653, 665.492 132, 660.380 132 C 656.966 132, 652.562 130.860, 646.444 128.391 C 624.611 119.582, 577.584 103.603, 558.722 98.584 C 544.571 94.819, 544.373 94.711, 543.646 90.328 C 542.713 84.703, 538.782 76.936, 534.908 73.062 C 527.777 65.931, 514.322 62.437, 505.324 65.379 M 561 109.325 C 561 110.054, 564.487 112.835, 568.750 115.505 C 583.448 124.711, 595.541 134.458, 609.015 147.958 C 627.650 166.630, 634.783 177.761, 637.174 191.901 C 638.161 197.733, 638.041 199.402, 636.145 206.261 C 633.357 216.348, 633.359 216.366, 637.256 215.733 C 642.030 214.959, 652 209.988, 652 208.383 C 652 205.301, 655.864 203, 661.040 203 C 666.577 203, 670.323 201.402, 681.500 194.271 C 693.630 186.531, 700 179.286, 700 173.228 C 700 167.173, 690.180 158.132, 675.688 150.844 C 668.436 147.197, 667.633 147.003, 664.487 148.141 C 659.948 149.782, 656.592 148.208, 654.273 143.350 C 652.317 139.252, 651.707 138.948, 625.191 128.875 C 608.608 122.575, 564.347 108.014, 561.750 108.003 C 561.337 108.001, 561 108.596, 561 109.325 M 581 133.084 C 581 133.681, 583 136.718, 585.445 139.834 C 600.371 158.857, 598.862 175.675, 580.562 194.274 C 572.067 202.908, 555.075 214.597, 538.826 222.985 C 528.505 228.312, 528.186 228.578, 527.690 232.273 C 526.674 239.849, 521.665 244.315, 514.057 244.429 C 511.445 244.468, 508.066 243.836, 506.548 243.024 C 503.951 241.636, 503.424 241.746, 497.644 244.889 C 487.200 250.568, 463.842 266.648, 456.828 272.988 C 446.275 282.526, 437.829 295, 441.923 295 C 442.431 295, 446.143 293.227, 450.173 291.061 C 461.033 285.222, 477.706 277.899, 493.500 272.033 C 505.219 267.680, 508.013 266.235, 510.650 263.166 C 513.672 259.649, 514.034 259.510, 519.607 259.747 C 524.530 259.957, 527.324 259.247, 537.957 255.089 C 544.856 252.391, 559.950 246.523, 571.500 242.049 C 583.050 237.575, 593.684 233.451, 595.132 232.885 C 597.425 231.988, 597.822 231.164, 598.209 226.488 C 598.831 218.991, 602.383 213.938, 609.470 210.471 C 615.152 207.691, 616.451 207.624, 626.627 209.588 C 629.699 210.180, 629.777 210.097, 631.005 204.979 C 632.620 198.248, 631.827 188.706, 629.168 182.868 C 623.498 170.422, 611.848 156.448, 595.025 141.914 C 584.207 132.567, 581 130.548, 581 133.084 M 590.500 243.114 C 586.650 244.764, 571.800 250.607, 557.500 256.099 C 543.200 261.590, 530.279 266.563, 528.786 267.148 C 527.293 267.734, 525.180 269.725, 524.089 271.574 C 521.770 275.504, 517.970 276.805, 513.612 275.160 C 510.936 274.149, 509.330 274.490, 500.038 278.037 C 466.296 290.918, 438 305.076, 438 309.077 C 438 312.707, 442.912 320.832, 449.111 327.459 C 452.476 331.057, 455.819 334, 456.539 334 C 457.260 334, 463.346 330.589, 470.065 326.419 C 476.783 322.250, 488.742 315.434, 496.640 311.273 C 506.162 306.257, 511 303.159, 511 302.077 C 511 299.684, 513.861 296.004, 516.501 295 C 517.903 294.467, 520.164 294.545, 522.298 295.199 C 525.535 296.193, 526.457 295.916, 534.648 291.485 C 557.396 279.181, 579.231 264.940, 592.614 253.677 C 600.133 247.351, 602.500 244.777, 602.500 242.929 C 602.500 239.429, 598.970 239.483, 590.500 243.114 M 422.500 317.878 C 406.899 330.386, 399.564 344.090, 402.962 354.383 C 404.104 357.844, 404.357 358.002, 408.828 358.035 C 411.397 358.055, 414.625 358.714, 416 359.500 C 417.375 360.286, 419.295 360.945, 420.268 360.965 C 421.240 360.984, 427.538 356.669, 434.262 351.375 C 440.987 346.081, 447.054 341.533, 447.745 341.268 C 449.894 340.443, 449.199 339.144, 442.481 331.441 C 438.895 327.330, 434.751 321.499, 433.272 318.483 C 431.793 315.467, 430.115 313.015, 429.542 313.034 C 428.969 313.052, 425.800 315.232, 422.500 317.878 M 164.227 328.659 C 160.010 330.738, 154.054 338.259, 148.375 348.677 C 144.285 356.179, 143.932 357.362, 144.548 361.473 C 145.358 366.874, 143.418 370.610, 139.004 372.148 C 135.879 373.238, 135.314 374.424, 125.508 400.500 C 119.075 417.603, 106 457.577, 106 460.138 C 106 463.986, 108.693 461.642, 114.863 452.426 C 134.863 422.548, 160.953 398.172, 179.558 391.981 C 187.635 389.293, 197.152 389.077, 204.986 391.403 C 207.943 392.281, 210.731 393, 211.182 393 C 212.627 393, 212.060 389.197, 209.750 383.404 C 208.110 379.291, 206.516 377.133, 203.870 375.444 C 199.836 372.869, 197.770 368.398, 198.629 364.104 C 200.050 357.002, 182.070 331.258, 173.383 327.955 C 169.917 326.638, 168.033 326.783, 164.227 328.659 M 444.098 351.033 C 438.947 354.901, 432.711 359.845, 430.240 362.020 L 425.747 365.975 425.576 375.938 L 425.405 385.901 432.452 391.769 C 436.329 394.996, 446.700 402.746, 455.500 408.991 C 475.930 423.490, 484.378 430.379, 491.770 438.570 C 498.742 446.294, 506.449 458.836, 509.230 466.982 L 511.203 472.758 518.682 473.965 C 522.796 474.629, 526.276 475.020, 526.415 474.836 C 526.554 474.651, 529.967 469.100, 533.998 462.500 C 544.136 445.900, 553.294 432.813, 560.786 424.216 C 564.429 420.034, 566.998 416.200, 566.817 415.216 C 566.488 413.435, 536.154 392.521, 532.329 391.438 C 530.914 391.037, 528.580 391.748, 525.626 393.479 C 509.098 403.165, 490 391.780, 490 372.241 L 490 365.416 483.250 361.530 C 479.538 359.393, 471.896 354.574, 466.268 350.822 C 460.640 347.070, 455.457 344, 454.750 344 C 454.042 344, 449.249 347.165, 444.098 351.033 M 415 391 C 414.175 391.533, 410.946 391.976, 407.824 391.985 L 402.147 392 399.484 397.443 C 392.896 410.909, 396.572 426.177, 409.791 440.250 C 413.041 443.709, 413.711 443.687, 418.224 439.967 C 434.517 426.537, 452.723 430.278, 472.507 451.119 C 476.360 455.178, 481.760 461.585, 484.507 465.355 C 493.372 477.524, 492.038 476.529, 497.454 475.013 C 502.140 473.701, 502.202 473.630, 501.648 470.219 C 500.729 464.556, 493.010 452.217, 485.137 443.827 C 476.395 434.511, 468.132 427.744, 447.870 413.309 C 439.593 407.412, 429.502 399.755, 425.445 396.293 C 417.634 389.628, 417.347 389.483, 415 391 M 607.500 395.867 C 596.148 400.052, 580 410.490, 580 413.643 C 580 414.534, 582.063 417.326, 584.584 419.848 C 605.283 440.547, 596.536 462.927, 556.678 491.245 C 551.336 495.040, 550 496.515, 550 498.620 C 550 501.053, 550.244 501.202, 553.250 500.606 C 555.038 500.252, 560.100 497.889, 564.500 495.354 C 582.396 485.044, 593.076 474.049, 610.016 448.500 C 618.046 436.389, 623.415 429.566, 632.050 420.500 C 637.579 414.695, 637.786 414.279, 638.414 407.712 L 639.063 400.925 632.433 397.822 C 623.979 393.866, 614.867 393.151, 607.500 395.867 M 186 395.652 C 177.801 397.310, 164.519 405.703, 151.301 417.580 C 143.491 424.598, 127.016 443.700, 127.006 445.750 C 126.995 447.948, 128.888 447.114, 134.757 442.334 C 154.102 426.577, 171.209 428.133, 190.502 447.402 C 199.405 456.295, 205.575 465.210, 217.120 485.867 C 224.598 499.248, 224.811 499.510, 228.620 500.055 C 236.997 501.253, 240.497 505.778, 239.688 514.366 C 239.421 517.190, 238.880 520.736, 238.486 522.248 C 237.663 525.398, 240.865 531.265, 254.447 551.494 C 263.475 564.940, 272.641 575.216, 281.360 581.665 C 287.384 586.121, 290 587.022, 290 584.640 C 290 583.892, 287.114 577.254, 283.586 569.890 C 275.391 552.779, 268.664 536.939, 265.401 527.067 C 263.159 520.282, 262.398 519.083, 259.442 517.674 C 255.596 515.840, 254.446 512.866, 255.364 507.127 C 255.971 503.331, 250.827 488.118, 236.722 452 C 234.252 445.675, 231.331 438.025, 230.230 435 C 228.236 429.522, 228.208 429.498, 223.325 428.885 C 216.998 428.091, 212.911 425.929, 209.178 421.400 C 204.177 415.333, 203.525 410.152, 206.527 400.336 C 207.020 398.723, 206.631 397.873, 205.003 397.002 C 202.629 395.731, 190.035 394.837, 186 395.652 M 668.500 404.309 C 662.573 406.474, 662.496 406.551, 662.195 410.692 C 661.918 414.504, 662.423 415.548, 667.758 422.192 C 670.985 426.212, 676.496 433.485, 680.006 438.356 C 683.515 443.226, 686.953 447.429, 687.646 447.694 C 688.338 447.960, 690.296 446.593, 691.996 444.657 C 695.679 440.463, 704.993 434.109, 709.951 432.409 C 711.903 431.740, 713.642 430.493, 713.815 429.638 C 714.290 427.296, 706.891 417.015, 700.578 411.245 C 690.761 402.273, 680.284 400.007, 668.500 404.309 M 566.996 425.750 C 557.182 436.677, 543.462 456.637, 533.920 473.871 L 531.500 478.241 535 480.871 C 536.925 482.317, 539.693 484.738, 541.151 486.250 C 542.609 487.762, 544.340 489, 544.998 489 C 546.813 489, 559.483 479.812, 568.832 471.716 C 577.178 464.488, 584.629 454.727, 586.857 448.101 C 588.470 443.304, 588.246 439.133, 586.126 434.500 C 583.989 429.832, 575.420 420, 573.487 420 C 572.757 420, 569.836 422.587, 566.996 425.750 M 636.727 426.907 C 630.970 433.010, 626.338 439.216, 609.047 463.987 C 595.872 482.862, 581.291 495.821, 562.770 505.115 C 553.029 510.004, 553 510.029, 552.993 513.759 C 552.989 515.817, 552.707 520.446, 552.367 524.046 L 551.749 530.592 563.624 537.700 C 577.931 546.263, 595.195 558.245, 603.830 565.605 C 607.311 568.572, 610.911 570.981, 611.830 570.958 C 612.765 570.935, 616.205 567.086, 619.649 562.208 C 627.390 551.246, 645.002 523.010, 644.993 521.576 C 644.990 520.984, 644.102 519.157, 643.019 517.515 C 638.750 511.038, 639.568 501.384, 644.871 495.664 C 648.602 491.640, 650.759 490.634, 656.952 490.031 L 662.404 489.500 667.265 481 C 669.938 476.325, 674.572 468.616, 677.563 463.869 C 680.553 459.122, 683 454.703, 683 454.049 C 683 452.498, 671.769 436.412, 664.458 427.492 L 658.727 420.500 650.841 420.403 L 642.954 420.305 636.727 426.907 M 235.996 425.750 C 235.993 426.712, 237.760 432, 239.922 437.500 C 243.704 447.121, 249.098 461.397, 259.003 488 C 262.823 498.257, 264.140 500.736, 266.347 501.813 C 270.816 503.996, 272.248 507.148, 271.515 513.195 C 270.953 517.839, 271.380 519.859, 274.939 529.399 C 282.890 550.710, 299.026 585.117, 302.372 587.893 C 304.758 589.874, 309.159 588.646, 315.777 584.151 C 322.192 579.795, 330 571.804, 330 569.596 C 330 568.799, 327.828 564.851, 325.173 560.823 C 319.647 552.439, 311.450 538.541, 304.374 525.559 C 300.207 517.916, 299.029 516.497, 296.255 515.782 C 291.469 514.548, 289.599 511.083, 290.411 504.956 C 291.030 500.294, 290.749 499.344, 286.349 491.224 C 267.229 455.938, 244.438 424, 238.378 424 C 236.782 424, 235.999 424.575, 235.996 425.750 M 710.222 440.513 C 704.654 443.043, 693 453.325, 693 455.707 C 693 456.479, 694.896 459.898, 697.213 463.305 C 699.529 466.712, 704.826 475.344, 708.984 482.486 C 716.146 494.793, 716.733 495.504, 720.185 496.065 C 725.286 496.894, 728.913 499.548, 730.661 503.731 C 732.002 506.940, 731.988 507.744, 730.523 511.579 C 728.929 515.754, 728.950 515.968, 731.455 520.911 C 742.345 542.402, 774.807 590, 778.573 590 C 779.358 590, 780 589.665, 780 589.255 C 780 588.512, 775.876 577.180, 767.352 554.500 C 764.871 547.900, 761.003 537.395, 758.756 531.155 C 755.100 521.005, 754.325 519.646, 751.391 518.246 C 747.159 516.228, 745.612 512.455, 746.468 506.235 C 747.073 501.831, 746.570 499.956, 741.148 486.435 C 735.035 471.188, 728.178 455.423, 722.799 444.250 C 719.329 437.040, 718.444 436.777, 710.222 440.513 M 430.500 440.867 C 425.534 443.131, 420 447.716, 420 449.567 C 420 453.563, 470.308 488, 476.145 488 C 477.792 488, 485 480.967, 485 479.360 C 485 477.293, 471.472 460.379, 464.089 453.214 C 455.293 444.679, 445.077 438.987, 438.616 439.022 C 436.352 439.034, 432.700 439.864, 430.500 440.867 M 732 442.862 C 732 443.885, 733.731 448.498, 735.846 453.112 C 737.962 457.725, 743.238 470.150, 747.571 480.722 C 754.442 497.485, 755.810 500.093, 758.265 501.110 C 763.500 503.278, 765.428 508.773, 762.899 514.323 C 761.953 516.397, 763.025 519.975, 770.473 539.620 C 775.244 552.204, 780.864 567.225, 782.961 573 C 790.302 593.214, 796.246 608.511, 797.241 609.750 C 797.860 610.521, 800.783 611.004, 804.872 611.010 C 809.705 611.017, 812.854 611.652, 816.500 613.353 C 822.002 615.920, 828.593 622.531, 829.583 626.475 C 831.547 634.302, 851.084 623.832, 871.250 604.144 C 879.890 595.709, 882.640 591.999, 880.250 592.001 C 879.837 592.001, 877.025 592.948, 874 594.104 C 862.638 598.450, 847.968 594.857, 836.314 584.876 C 826.155 576.174, 813.382 558.507, 800.074 534.750 C 797.071 529.388, 796.605 528.999, 793.177 528.978 C 788.035 528.947, 781.728 525.831, 778.970 521.958 C 775.620 517.253, 775.153 509.580, 777.891 504.214 C 779.051 501.940, 780 499.489, 780 498.768 C 780 496.989, 765.066 472.098, 759.810 465.116 C 753.436 456.649, 747.149 450.163, 740.640 445.341 C 734.273 440.625, 732 439.972, 732 442.862 M 400.034 474.563 C 392.865 485.323, 387 494.716, 387 495.437 C 387 496.158, 388.156 498.817, 389.569 501.345 C 394.812 510.726, 393.742 522.070, 386.914 529.477 C 381.306 535.561, 374.279 538.403, 366.905 537.569 L 361.183 536.921 354.567 548.037 C 350.928 554.150, 346.162 561.574, 343.975 564.533 C 341.789 567.493, 340 570.519, 340 571.257 C 340 572.905, 347.131 582.861, 355.792 593.305 L 362.265 601.111 367.550 600.451 C 370.803 600.044, 374.247 600.256, 376.508 601.003 C 380.029 602.165, 380.331 602.075, 383.724 598.858 C 387.124 595.634, 396.155 583.826, 411.857 562.071 C 420.694 549.827, 433.828 535.807, 442.882 528.950 C 446.522 526.193, 453.325 522.045, 458 519.731 C 462.675 517.417, 466.831 515.068, 467.235 514.512 C 467.639 513.955, 467.987 511.925, 468.008 510 C 468.030 508.075, 469.160 503.800, 470.519 500.500 C 471.879 497.200, 472.993 494.229, 472.995 493.898 C 472.998 493.568, 467.712 490.202, 461.250 486.419 C 444.694 476.729, 430.406 467.170, 422.679 460.615 C 419.039 457.527, 415.387 455, 414.564 455 C 413.730 455, 407.293 463.668, 400.034 474.563 M 455.594 530.213 C 440.709 539.059, 427.051 553.506, 409.470 579 C 406.246 583.675, 399.889 592.060, 395.344 597.632 L 387.081 607.765 387.685 616.321 L 388.288 624.878 393.394 627.189 C 400.447 630.381, 415.298 630.494, 422 627.405 C 427.500 624.871, 439 615.463, 439 613.498 C 439 612.712, 437.313 609.016, 435.250 605.284 C 431.619 598.715, 431.500 598.183, 431.500 588.500 C 431.500 579.632, 431.808 577.877, 434.220 573 C 435.717 569.975, 439.295 564.575, 442.172 561 C 446.893 555.133, 461.765 540.769, 467.924 536.127 C 470.145 534.453, 470.270 533.932, 469.423 529.900 C 468.739 526.646, 467.976 525.425, 466.494 525.213 C 465.392 525.055, 460.487 527.305, 455.594 530.213 M 545.164 541.250 C 543.552 543.587, 541.280 546.357, 540.116 547.405 C 538.952 548.453, 538 550.033, 538 550.916 C 538 551.799, 541.125 556.405, 544.945 561.152 C 563.366 584.041, 584.063 593.759, 597 585.593 C 608.437 578.374, 608.563 576.584, 598.213 568.408 C 580.818 554.668, 553.630 537, 549.882 537 C 548.900 537, 546.777 538.913, 545.164 541.250 M 464.789 548.876 C 447.878 562.813, 438.576 576.847, 438.526 588.500 C 438.494 595.903, 442.697 606, 445.810 606 C 449.002 606, 469.157 579.207, 479.360 561.402 C 481.912 556.948, 484 552.872, 484 552.345 C 484 550.990, 475.480 542, 474.195 542 C 473.610 542, 469.378 545.094, 464.789 548.876 M 909.080 566.979 C 896.411 586.334, 883.379 601.465, 866.675 616.212 C 855.165 626.374, 846.336 631.636, 836.750 634.044 C 832.774 635.043, 832 635.619, 832 637.581 C 832 642.893, 827.935 650.873, 822.944 655.360 C 820.225 657.805, 818 660.455, 818 661.249 C 818 663.206, 825.238 677.888, 829.635 684.851 C 833.828 691.490, 840.391 698.577, 844.200 700.580 C 851.286 704.306, 860.563 700.478, 867.827 690.832 C 870.035 687.899, 874.637 680.171, 878.053 673.658 L 884.264 661.815 882.132 658.021 C 880.959 655.935, 880 652.893, 880 651.262 C 880 647.232, 883.911 641.719, 887.531 640.646 C 889.164 640.162, 891.175 639.435, 892 639.031 C 893.467 638.312, 899.119 623.023, 907.168 598 C 913.224 579.173, 919.975 556.660, 919.988 555.250 C 920.021 551.767, 916.703 555.335, 909.080 566.979 M 527.667 555.667 C 526.418 556.915, 526.996 559.509, 529.636 564.508 C 539.448 583.087, 554.160 597.837, 580 615 C 590.970 622.286, 604.959 633.224, 609.946 638.414 C 613.173 641.772, 613.786 642, 619.586 642 L 625.780 642 627.776 637.750 C 634.069 624.349, 633.324 611.562, 625.492 598.556 C 621.431 591.813, 614.243 583, 612.804 583 C 612.248 583, 609.568 585.001, 606.849 587.446 C 600.905 592.790, 592.893 596, 585.500 596 C 571.134 596, 551.738 582.709, 536.247 562.250 C 531.101 555.454, 529.278 554.055, 527.667 555.667 M 482.953 566.580 C 475.537 579.110, 464.505 594.753, 456.564 604 C 453.151 607.974, 451.082 611.270, 451.241 612.482 C 451.692 615.936, 469.755 628.335, 498.234 644.740 L 505.968 649.195 511.180 646.597 C 514.047 645.169, 517.767 644.010, 519.446 644.022 C 523.231 644.049, 529.885 647.026, 532.345 649.793 C 534.710 652.453, 536.900 658.593, 536.956 662.724 C 536.992 665.336, 537.618 666.263, 540.250 667.602 C 545.040 670.038, 562.896 680.949, 567.400 684.192 C 569.545 685.736, 572.053 687, 572.972 687 C 574.734 687, 589.068 677.128, 600.222 668.233 L 606.827 662.966 606.577 654.278 L 606.327 645.590 600.913 640.717 C 597.936 638.037, 590.325 632.195, 584 627.734 C 558.284 609.599, 552.010 604.729, 543.348 596.182 C 533.837 586.797, 524.779 574.272, 520.491 564.577 L 517.946 558.820 513.223 559.419 C 510.323 559.787, 505.990 559.413, 502 558.451 C 488.374 555.165, 490.160 554.402, 482.953 566.580 M 327.523 583.974 C 324.187 587.346, 318.775 591.450, 315.276 593.259 C 311.828 595.041, 309.006 596.975, 309.004 597.555 C 308.997 599.528, 319.952 611.899, 325.237 615.888 C 332.493 621.364, 339.079 624, 345.501 624 C 353.427 624, 354 623.581, 354 617.779 C 354 614.555, 354.743 611.450, 356.088 609.057 L 358.176 605.342 347.416 591.921 C 341.498 584.540, 335.946 578.372, 335.078 578.215 C 334.210 578.058, 330.810 580.650, 327.523 583.974 M 609.966 667.541 C 608.907 668.818, 595.396 679.147, 582.250 688.732 C 580.462 690.035, 579.010 691.641, 579.022 692.301 C 579.034 692.960, 581.309 695.750, 584.078 698.500 C 587.005 701.407, 590.617 706.534, 592.708 710.750 C 594.686 714.737, 596.725 718, 597.239 718 C 599.007 718, 612.986 707.758, 616.447 703.927 C 624.246 695.294, 626.738 684.934, 623.496 674.625 C 621.430 668.058, 620.838 667.477, 615.367 666.643 C 612.297 666.176, 610.908 666.406, 609.966 667.541 M 563.500 701.058 C 560.200 703.231, 551.313 708.648, 543.750 713.097 C 530.312 721.001, 530 721.263, 530 724.628 C 530 733.224, 520.435 738.733, 513.066 734.380 C 510.387 732.797, 510.128 732.871, 501.912 737.575 C 488.574 745.210, 466.838 759.239, 449.750 771.241 C 428.866 785.909, 428.763 788.438, 449.390 780.045 C 454.483 777.972, 461.091 775.479, 464.075 774.503 C 467.059 773.528, 476.025 770.167, 484 767.034 C 491.975 763.901, 500.633 760.551, 503.240 759.590 C 506.255 758.478, 508.590 756.810, 509.655 755.006 C 511.881 751.238, 515.094 749.914, 520.286 750.626 C 524.003 751.135, 526.887 750.275, 542.252 744.072 C 557.967 737.728, 578.989 728.414, 586 724.689 C 589.035 723.076, 589.058 720.221, 586.084 713.920 C 583.464 708.366, 573.397 696.982, 571.170 697.054 C 570.252 697.084, 566.800 698.885, 563.500 701.058 M 570.500 740.723 C 562.800 744.304, 549.975 749.840, 542 753.025 C 529.806 757.896, 527.280 759.269, 526.117 761.658 C 525.357 763.221, 524.049 765.288, 523.212 766.250 C 521.478 768.243, 516.319 768.558, 512.667 766.894 C 510.191 765.766, 502.852 768.163, 473.500 779.684 C 468.550 781.627, 459.775 784.919, 454 786.999 C 448.225 789.080, 437.038 793.372, 429.141 796.538 L 414.781 802.294 415.398 806.942 C 416.710 816.832, 409.175 829.999, 400.385 833.178 C 396.057 834.743, 395.989 837.075, 400.033 845.226 C 404.383 853.993, 410.464 862.150, 420.751 873.021 C 429.441 882.202, 434.308 886.025, 435.629 884.704 C 435.977 884.356, 435.331 881.693, 434.193 878.786 C 430.093 868.309, 430.453 861.362, 435.677 850.115 C 441.069 838.509, 461.435 821.492, 487.797 806.566 C 497.795 800.905, 498 800.716, 498.022 797.145 C 498.051 792.371, 501.054 785.889, 504.490 783.186 C 510.204 778.692, 517.019 778.339, 524.506 782.152 L 528.511 784.191 537.506 779.010 C 560.516 765.754, 575.734 753.643, 582.939 742.853 C 587.094 736.632, 587.966 733.918, 585.750 734.106 C 585.063 734.165, 578.200 737.142, 570.500 740.723 M 353.217 827.012 C 339.717 833.864, 330.546 840.765, 327.280 846.533 C 324.683 851.118, 324.306 857.774, 326.415 861.800 C 329.581 867.844, 339.730 875.140, 355.883 882.985 C 365.072 887.447, 365.133 887.460, 368.140 885.735 C 375.356 881.593, 385.908 885.727, 385.978 892.724 C 386.011 896.013, 387.671 896.774, 416 906.481 C 431.450 911.776, 439.409 914.289, 465 921.955 C 480.093 926.477, 481 926.621, 481 924.500 C 481 923.675, 480.652 923, 480.227 923 C 479.802 923, 474.559 920.278, 468.577 916.951 C 451.944 907.702, 435.823 895.736, 422.161 882.500 C 404.484 865.375, 395.078 852.359, 391.380 839.909 C 390.047 835.420, 389.751 835.135, 385.737 834.490 C 379.785 833.532, 373.412 829.580, 370.345 824.945 C 368.909 822.775, 367.133 821, 366.399 821 C 365.664 821, 359.732 823.705, 353.217 827.012" stroke="none" fill="#ffffff" fill-rule="evenodd"/></svg>